<mxfile host="app.diagrams.net" modified="2024-05-24T17:32:34.450Z" agent="Mozilla/5.0 (Windows NT 10.0; Win64; x64) AppleWebKit/537.36 (KHTML, like Gecko) Chrome/125.0.0.0 Safari/537.36" version="24.4.0" etag="lh1xbU7b9bH8h7L5CHaF" type="github">
  <diagram name="Page-1" id="su-Rp14KDxh8nRGtiXpd">
    <mxGraphModel>
      <root>
        <mxCell id="0" />
        <mxCell id="1" parent="0" />
      </root>
    </mxGraphModel>
  </diagram>
</mxfile>
